<svg width="48" height="48" viewBox="0 0 48 48" fill="none" xmlns="http://www.w3.org/2000/svg">
<circle cx="24" cy="24" r="21" fill="#3A5A40"/>
<path fill-rule="evenodd" clip-rule="evenodd" d="M10.314 32.9393V14.6152H18.7849C21.5057 14.6152 23.7114 16.8209 23.7114 19.5418C23.7114 21.2708 23.1798 22.3418 21.2304 23.4405C23.5631 24.5034 24.211 25.9765 24.211 28.0313C24.211 30.8109 21.7417 32.9393 18.9621 32.9393H10.314ZM13.8985 17.6485V22.0547H18.0938C18.0938 22.0547 20.1329 22.0547 20.1329 19.8516C20.1329 17.6485 18.0938 17.6485 18.0938 17.6485H13.8985ZM13.8985 29.836V25.0782H18.3985C19.125 25.0782 20.6485 25.4532 20.6485 27.7032C20.6485 29.3719 19.1485 29.8203 18.3985 29.836H13.8985Z" fill="white"/>
<path fill-rule="evenodd" clip-rule="evenodd" d="M31.875 19.6641C29.2969 19.6641 25.4766 21.5157 25.4766 26.4375C25.4766 29.4345 27.1172 33.2813 32.0391 33.2813C35.9766 33.2813 37.7891 30.3907 38.2032 28.9453H34.5C34.3125 29.6016 33.586 30.3282 32.0391 30.3282C29.7891 30.3282 28.9922 28.4063 28.875 27.4453H38.2032V26.4375C38.2032 21.5157 34.4532 19.6641 31.875 19.6641ZM31.875 22.4766C29.775 22.4766 29 24.211 28.875 25.0782H34.5C34.5 24.211 33.975 22.4766 31.875 22.4766Z" fill="white"/>
<path d="M27.3985 15.6563V17.9297H36.2344V15.6563H27.3985Z" fill="white"/>
</svg>
