<svg width="135" height="96" viewBox="0 0 135 96" fill="none" xmlns="http://www.w3.org/2000/svg">
<path d="M10.8182 40V16.7273H13.6364V28.2727H13.9091L24.3636 16.7273H28.0455L18.2727 27.2273L28.0455 40H24.6364L16.5455 29.1818L13.6364 32.4545V40H10.8182ZM31.3295 40V22.5455H33.9205V25.1818H34.1023C34.4205 24.3182 34.9962 23.6174 35.8295 23.0795C36.6629 22.5417 37.6023 22.2727 38.6477 22.2727C38.8447 22.2727 39.0909 22.2765 39.3864 22.2841C39.6818 22.2917 39.9053 22.303 40.0568 22.3182V25.0455C39.9659 25.0227 39.7576 24.9886 39.4318 24.9432C39.1136 24.8902 38.7765 24.8636 38.4205 24.8636C37.572 24.8636 36.8144 25.0417 36.1477 25.3977C35.4886 25.7462 34.9659 26.2311 34.5795 26.8523C34.2008 27.4659 34.0114 28.1667 34.0114 28.9545V40H31.3295ZM43.2358 40V22.5455H45.9176V40H43.2358ZM44.5994 19.6364C44.0767 19.6364 43.6259 19.4583 43.2472 19.1023C42.8759 18.7462 42.6903 18.3182 42.6903 17.8182C42.6903 17.3182 42.8759 16.8902 43.2472 16.5341C43.6259 16.178 44.0767 16 44.5994 16C45.1222 16 45.5691 16.178 45.9403 16.5341C46.3191 16.8902 46.5085 17.3182 46.5085 17.8182C46.5085 18.3182 46.3191 18.7462 45.9403 19.1023C45.5691 19.4583 45.1222 19.6364 44.5994 19.6364ZM63.1932 26.4545L60.7841 27.1364C60.6326 26.7348 60.4091 26.3447 60.1136 25.9659C59.8258 25.5795 59.4318 25.2614 58.9318 25.0114C58.4318 24.7614 57.7917 24.6364 57.0114 24.6364C55.9432 24.6364 55.053 24.8826 54.3409 25.375C53.6364 25.8598 53.2841 26.4773 53.2841 27.2273C53.2841 27.8939 53.5265 28.4205 54.0114 28.8068C54.4962 29.1932 55.2538 29.5152 56.2841 29.7727L58.875 30.4091C60.4356 30.7879 61.5985 31.3674 62.3636 32.1477C63.1288 32.9205 63.5114 33.9167 63.5114 35.1364C63.5114 36.1364 63.2235 37.0303 62.6477 37.8182C62.0795 38.6061 61.2841 39.2273 60.2614 39.6818C59.2386 40.1364 58.0492 40.3636 56.6932 40.3636C54.9129 40.3636 53.4394 39.9773 52.2727 39.2045C51.1061 38.4318 50.3674 37.303 50.0568 35.8182L52.6023 35.1818C52.8447 36.1212 53.303 36.8258 53.9773 37.2955C54.6591 37.7652 55.5492 38 56.6477 38C57.8977 38 58.8902 37.7348 59.625 37.2045C60.3674 36.6667 60.7386 36.0227 60.7386 35.2727C60.7386 34.6667 60.5265 34.1591 60.1023 33.75C59.678 33.3333 59.0265 33.0227 58.1477 32.8182L55.2386 32.1364C53.6402 31.7576 52.4659 31.1705 51.7159 30.375C50.9735 29.572 50.6023 28.5682 50.6023 27.3636C50.6023 26.3788 50.8788 25.5076 51.4318 24.75C51.9924 23.9924 52.7538 23.3977 53.7159 22.9659C54.6856 22.5341 55.7841 22.3182 57.0114 22.3182C58.7386 22.3182 60.0947 22.697 61.0795 23.4545C62.072 24.2121 62.7765 25.2121 63.1932 26.4545ZM10.8182 80V56.7273H18.6818C20.5 56.7273 21.9924 57.0379 23.1591 57.6591C24.3258 58.2727 25.1894 59.1174 25.75 60.1932C26.3106 61.2689 26.5909 62.4924 26.5909 63.8636C26.5909 65.2348 26.3106 66.4508 25.75 67.5114C25.1894 68.572 24.3295 69.4053 23.1705 70.0114C22.0114 70.6098 20.5303 70.9091 18.7273 70.9091H12.3636V68.3636H18.6364C19.8788 68.3636 20.8788 68.1818 21.6364 67.8182C22.4015 67.4545 22.9545 66.9394 23.2955 66.2727C23.6439 65.5985 23.8182 64.7955 23.8182 63.8636C23.8182 62.9318 23.6439 62.1174 23.2955 61.4205C22.947 60.7235 22.3902 60.1856 21.625 59.8068C20.8598 59.4205 19.8485 59.2273 18.5909 59.2273H13.6364V80H10.8182ZM21.7727 69.5455L27.5 80H24.2273L18.5909 69.5455H21.7727ZM36.0597 80.4091C34.9536 80.4091 33.9498 80.2008 33.0483 79.7841C32.1468 79.3598 31.4309 78.75 30.9006 77.9545C30.3703 77.1515 30.1051 76.1818 30.1051 75.0455C30.1051 74.0455 30.3021 73.2348 30.696 72.6136C31.09 71.9848 31.6165 71.4924 32.2756 71.1364C32.9347 70.7803 33.6619 70.5152 34.4574 70.3409C35.2604 70.1591 36.0672 70.0152 36.8778 69.9091C37.9384 69.7727 38.7983 69.6705 39.4574 69.6023C40.1241 69.5265 40.6089 69.4015 40.9119 69.2273C41.2225 69.053 41.3778 68.75 41.3778 68.3182V68.2273C41.3778 67.1061 41.071 66.2348 40.4574 65.6136C39.8513 64.9924 38.9309 64.6818 37.696 64.6818C36.4157 64.6818 35.4119 64.9621 34.6847 65.5227C33.9574 66.0833 33.446 66.6818 33.1506 67.3182L30.6051 66.4091C31.0597 65.3485 31.6657 64.5227 32.4233 63.9318C33.1884 63.3333 34.0218 62.9167 34.9233 62.6818C35.8324 62.4394 36.7263 62.3182 37.6051 62.3182C38.1657 62.3182 38.8097 62.3864 39.5369 62.5227C40.2718 62.6515 40.9801 62.9205 41.6619 63.3295C42.3513 63.7386 42.9233 64.3561 43.3778 65.1818C43.8324 66.0076 44.0597 67.1136 44.0597 68.5V80H41.3778V77.6364H41.2415C41.0597 78.0152 40.7566 78.4205 40.3324 78.8523C39.9081 79.2841 39.3438 79.6515 38.6392 79.9545C37.9347 80.2576 37.0748 80.4091 36.0597 80.4091ZM36.4688 78C37.5294 78 38.4233 77.7917 39.1506 77.375C39.8854 76.9583 40.4384 76.4205 40.8097 75.7614C41.1884 75.1023 41.3778 74.4091 41.3778 73.6818V71.2273C41.2642 71.3636 41.0142 71.4886 40.6278 71.6023C40.2491 71.7083 39.8097 71.803 39.3097 71.8864C38.8172 71.9621 38.3362 72.0303 37.8665 72.0909C37.4044 72.1439 37.0294 72.1894 36.7415 72.2273C36.0445 72.3182 35.393 72.4659 34.7869 72.6705C34.1884 72.8674 33.7036 73.1667 33.3324 73.5682C32.9688 73.9621 32.7869 74.5 32.7869 75.1818C32.7869 76.1136 33.1316 76.8182 33.821 77.2955C34.518 77.7652 35.4006 78 36.4688 78ZM50.0568 86.5455C49.6023 86.5455 49.197 86.5076 48.8409 86.4318C48.4848 86.3636 48.2386 86.2955 48.1023 86.2273L48.7841 83.8636C49.4356 84.0303 50.0114 84.0909 50.5114 84.0455C51.0114 84 51.4545 83.7765 51.8409 83.375C52.2348 82.9811 52.5947 82.3409 52.9205 81.4545L53.4205 80.0909L46.9659 62.5455H49.875L54.6932 76.4545H54.875L59.6932 62.5455H62.6023L55.1932 82.5455C54.8598 83.447 54.447 84.1932 53.9545 84.7841C53.4621 85.3826 52.8902 85.8258 52.2386 86.1136C51.5947 86.4015 50.8674 86.5455 50.0568 86.5455ZM66.5057 80V56.7273H69.1875V65.3182H69.4148C69.6117 65.0152 69.8845 64.6288 70.233 64.1591C70.589 63.6818 71.0966 63.2576 71.7557 62.8864C72.4223 62.5076 73.3239 62.3182 74.4602 62.3182C75.9299 62.3182 77.2254 62.6856 78.3466 63.4205C79.4678 64.1553 80.3428 65.197 80.9716 66.5455C81.6004 67.8939 81.9148 69.4848 81.9148 71.3182C81.9148 73.1667 81.6004 74.7689 80.9716 76.125C80.3428 77.4735 79.4716 78.5189 78.358 79.2614C77.2443 79.9962 75.9602 80.3636 74.5057 80.3636C73.3845 80.3636 72.4867 80.178 71.8125 79.8068C71.1383 79.428 70.6193 79 70.2557 78.5227C69.892 78.0379 69.6117 77.6364 69.4148 77.3182H69.0966V80H66.5057ZM69.142 71.2727C69.142 72.5909 69.3352 73.7538 69.7216 74.7614C70.108 75.7614 70.6723 76.5455 71.4148 77.1136C72.1572 77.6742 73.0663 77.9545 74.142 77.9545C75.2633 77.9545 76.1989 77.6591 76.9489 77.0682C77.7064 76.4697 78.2746 75.6667 78.6534 74.6591C79.0398 73.6439 79.233 72.5152 79.233 71.2727C79.233 70.0455 79.0436 68.9394 78.6648 67.9545C78.2936 66.9621 77.7292 66.178 76.9716 65.6023C76.2216 65.0189 75.2784 64.7273 74.142 64.7273C73.0511 64.7273 72.1345 65.0038 71.392 65.5568C70.6496 66.1023 70.089 66.8674 69.7102 67.8523C69.3314 68.8295 69.142 69.9697 69.142 71.2727ZM93.108 80.3636C91.5322 80.3636 90.1496 79.9886 88.9602 79.2386C87.7784 78.4886 86.8542 77.4394 86.1875 76.0909C85.5284 74.7424 85.1989 73.1667 85.1989 71.3636C85.1989 69.5455 85.5284 67.9583 86.1875 66.6023C86.8542 65.2462 87.7784 64.1932 88.9602 63.4432C90.1496 62.6932 91.5322 62.3182 93.108 62.3182C94.6837 62.3182 96.0625 62.6932 97.2443 63.4432C98.4337 64.1932 99.358 65.2462 100.017 66.6023C100.684 67.9583 101.017 69.5455 101.017 71.3636C101.017 73.1667 100.684 74.7424 100.017 76.0909C99.358 77.4394 98.4337 78.4886 97.2443 79.2386C96.0625 79.9886 94.6837 80.3636 93.108 80.3636ZM93.108 77.9545C94.3049 77.9545 95.2898 77.6477 96.0625 77.0341C96.8352 76.4205 97.4072 75.6136 97.7784 74.6136C98.1496 73.6136 98.3352 72.5303 98.3352 71.3636C98.3352 70.197 98.1496 69.1098 97.7784 68.1023C97.4072 67.0947 96.8352 66.2803 96.0625 65.6591C95.2898 65.0379 94.3049 64.7273 93.108 64.7273C91.911 64.7273 90.9261 65.0379 90.1534 65.6591C89.3807 66.2803 88.8087 67.0947 88.4375 68.1023C88.0663 69.1098 87.8807 70.197 87.8807 71.3636C87.8807 72.5303 88.0663 73.6136 88.4375 74.6136C88.8087 75.6136 89.3807 76.4205 90.1534 77.0341C90.9261 77.6477 91.911 77.9545 93.108 77.9545ZM107.793 69.5V80H105.111V62.5455H107.702V65.2727H107.929C108.338 64.3864 108.959 63.6742 109.793 63.1364C110.626 62.5909 111.702 62.3182 113.02 62.3182C114.202 62.3182 115.236 62.5606 116.122 63.0455C117.009 63.5227 117.698 64.25 118.19 65.2273C118.683 66.197 118.929 67.4242 118.929 68.9091V80H116.247V69.0909C116.247 67.7197 115.891 66.6515 115.179 65.8864C114.467 65.1136 113.49 64.7273 112.247 64.7273C111.391 64.7273 110.626 64.9129 109.952 65.2841C109.285 65.6553 108.759 66.197 108.372 66.9091C107.986 67.6212 107.793 68.4848 107.793 69.5Z" fill="#F9FBF9"/>
<rect x="0.5" y="0.5" width="134" height="95" stroke="#3A5A40"/>
</svg>
